Coordinates
version=1
nRows=15
nColumns=42
inDegrees=yes

Units are S.I. units (second, meters, Newtons, ...)
If the header above contains a line with 'inDegrees', this indicates whether rotational values are in degrees (yes) or radians (no).

endheader
time	pelvis_tilt	pelvis_list	pelvis_rotation	pelvis_tx	pelvis_ty	pelvis_tz	hip_flexion_r	hip_adduction_r	hip_rotation_r	knee_angle_r	knee_adduction_r	knee_angle_r_beta	ankle_angle_r	subtalar_angle_r	mtp_angle_r	hip_flexion_l	hip_adduction_l	hip_rotation_l	knee_angle_l	knee_adduction_l	knee_angle_l_beta	ankle_angle_l	subtalar_angle_l	mtp_angle_l	lumbar_extension	lumbar_bending	lumbar_rotation	arm_flex_r	arm_add_r	arm_rot_r	elbow_flex_r	pro_sup_r	wrist_flex_r	wrist_dev_r	arm_flex_l	arm_add_l	arm_rot_l	elbow_flex_l	pro_sup_l	wrist_flex_l	wrist_dev_l
      0.85000000	      6.89169506	     -1.47020852	     -6.93420833	      0.24749467	      0.83087809	     -0.29491680	     18.48070242	     -3.61752469	    -18.82526375	     59.67163072	    -16.37465991	      1.04146643	     11.53193445	     -1.79855370	     -7.52644995	      1.63105509	     -0.10923249	    -30.37997643	     25.14308014	     -4.83047786	      0.43882953	     25.86615525	     21.95987236	     -7.52644995	    -19.54882401	     -0.10701325	      4.30103078	      3.90957190	    -18.28682224	      1.04469968	     37.28866313	     90.00000001	      0.00000000	      0.00000000	     -4.62938150	     -7.15873848	    -32.66244656	     35.55193329	     90.00000001	      0.00000000	      0.00000000
      0.86000000	      6.87172040	     -1.65972660	     -6.44845777	      0.26204688	      0.83136599	     -0.29572483	     19.67291264	     -3.19996524	    -19.68383532	     56.73291615	    -15.95293580	      0.99017618	     12.14126644	     -1.43422537	     -7.52546324	     -0.18055333	     -0.21271660	    -30.61509729	     23.96483522	     -4.31995462	      0.41826528	     26.31920913	     23.21308714	     -7.52546324	    -19.47663656	      0.41704035	      3.40712110	      4.02247979	    -18.10359743	      0.85119435	     36.68501129	     90.00000001	      0.00000000	      0.00000000	     -4.11194122	     -7.22546410	    -31.00248043	     37.23320354	     90.00000001	      0.00000000	      0.00000000
      0.87000000	      6.76585572	     -1.91151976	     -5.81588015	      0.27680110	      0.83111607	     -0.29627522	     20.79802734	     -2.83092482	    -21.41879430	     53.42347914	    -15.83511773	      0.93241561	     12.88581987	      0.15283399	     -7.52359307	     -1.62361701	     -0.60893153	    -31.54069337	     23.30146965	     -4.11462209	      0.40668737	     26.87026945	     25.10497800	     -7.52359307	    -19.27378413	      0.99752131	      2.57000818	      3.81755585	    -17.88381299	      0.33665640	     36.48488803	     90.00000001	      0.00000000	      0.00000000	     -3.72313204	     -7.69098423	    -28.15742309	     38.95034254	     90.00000001	      0.00000000	      0.00000000
      0.88000000	      6.72376300	     -1.94100994	     -5.25939063	      0.29148651	      0.83050154	     -0.29713362	     21.77062346	     -2.77769333	    -22.36991007	     50.15679630	    -15.02122153	      0.87540124	     13.39268954	      0.54159087	     -7.52260806	     -3.21124018	     -0.61271228	    -31.99647427	     22.43503358	     -3.74208889	      0.39156520	     27.28797410	     26.24695505	     -7.52260806	    -19.12886241	      1.33827731	      1.62203410	      3.85368194	    -17.73489433	      0.06323719	     35.97620794	     90.00000001	      0.00000000	      0.00000000	     -3.19829782	     -7.90725942	    -26.70981096	     40.73043913	     90.00000001	      0.00000000	      0.00000000
      0.89000000	      6.62757654	     -1.89893646	     -4.72890383	      0.30618713	      0.82935631	     -0.29780253	     22.70488582	     -2.84993827	    -23.49607262	     46.75412553	    -14.14640629	      0.81601343	     13.93903696	      1.22134291	     -7.52179373	     -4.63696270	     -0.60425714	    -32.49385052	     21.77880840	     -3.38836746	      0.38011191	     27.73030075	     27.30429370	     -7.52179373	    -18.91610283	      1.56791515	      0.73143155	      3.81547638	    -17.56140393	     -0.27546221	     35.61143863	     90.00000001	      0.00000000	      0.00000000	     -2.68972361	     -8.23456592	    -25.09998267	     42.53581863	     90.00000001	      0.00000000	      0.00000000
      0.90000000	      6.47529464	     -1.81079132	     -4.13789155	      0.32101222	      0.82756655	     -0.29845651	     23.66378749	     -3.14994055	    -25.62283059	     43.25749119	    -13.64181850	      0.75498565	     14.87055252	      3.77168933	     -7.51976658	     -5.74836026	     -0.72494876	    -33.68561388	     21.63472542	     -3.29861624	      0.37759719	     28.29094108	     28.97222033	     -7.51976658	    -18.61708035	      1.75869034	     -0.11532215	      3.62180787	    -17.37035416	     -1.02366574	     35.45898731	     90.00000001	      0.00000000	      0.00000000	     -2.07924399	     -8.67677188	    -23.33055885	     44.15197320	     90.00000001	      0.00000000	      0.00000000
      0.91000000	      6.34977167	     -1.59467861	     -3.62041219	      0.33570844	      0.82558310	     -0.29912831	     24.48048438	     -3.60467801	    -27.31669173	     39.82081031	    -12.69570254	      0.69500425	     15.59987003	      5.94350667	     -7.51819714	     -6.95327703	     -0.57574518	    -34.37390075	     21.32238884	     -3.10383246	      0.37214589	     28.65737568	     29.83596320	     -7.51819714	    -18.37697861	      1.78699569	     -0.94108973	      3.49951150	    -17.24140405	     -1.54035818	     35.25455293	     90.00000001	      0.00000000	      0.00000000	     -1.42494193	     -9.05712617	    -21.95370999	     45.79170023	     90.00000001	      0.00000000	      0.00000000
      0.92000000	      6.22143660	     -1.29752697	     -3.12783564	      0.35038732	      0.82334468	     -0.29975766	     25.21166032	     -4.21583625	    -29.15382322	     36.47728171	    -11.62627690	      0.63664867	     16.38634433	      8.79336425	     -7.51691867	     -8.11617758	     -0.33825520	    -35.06653707	     21.06933646	     -2.96477958	      0.36772929	     28.97213554	     30.57114143	     -7.51691867	    -18.15623211	      1.71080315	     -1.72266520	      3.37166114	    -17.11892960	     -2.08560652	     35.06165729	     90.00000001	      0.00000000	      0.00000000	     -0.73781106	     -9.43138772	    -20.71786029	     47.40982549	     90.00000001	      0.00000000	      0.00000000
      0.93000000	      6.12863657	     -0.96814757	     -2.75861587	      0.36505040	      0.82095974	     -0.30025854	     25.80976489	     -4.83742568	    -30.87445151	     33.24797383	    -10.40219904	      0.58028661	     17.12989161	     12.07930277	     -7.51599559	     -9.30872209	     -0.03030233	    -35.70900561	     20.86691671	     -2.84371680	      0.36419640	     29.24168764	     31.15401495	     -7.51599559	    -17.98986712	      1.57411220	     -2.39324203	      3.29474302	    -17.01824792	     -2.63346283	     34.89417943	     90.00000001	      0.00000000	      0.00000000	     -0.06747189	     -9.80174444	    -19.52876410	     49.03178637	     90.00000001	      0.00000000	      0.00000000
      0.94000000	      5.92805625	     -0.55889281	     -2.27616583	      0.37972931	      0.81826698	     -0.30078387	     26.49091968	     -5.69834018	    -33.18846169	     30.34979037	     -9.26110713	      0.52970377	     17.88881395	     16.71565728	     -7.51488498	    -10.25565386	      0.28120363	    -36.25184254	     20.87317526	     -2.83343555	      0.36430563	     29.46583764	     31.76110308	     -7.51488498	    -17.71503529	      1.37048581	     -3.05915538	      3.02405824	    -16.92060178	     -3.37274829	     34.94684655	     90.00000001	      0.00000000	      0.00000000	      0.75233454	    -10.14169261	    -18.54822932	     50.39028751	     90.00000001	      0.00000000	      0.00000000
      0.95000000	      5.74606886	     -0.13561485	     -1.92153512	      0.39436622	      0.81559095	     -0.30116640	     27.06041208	     -6.47433496	    -34.94434669	     27.74791862	     -7.90400728	      0.48429254	     18.28091017	     20.93425543	     -7.51374315	    -11.22579145	      0.64731404	    -36.62626244	     20.88224455	     -2.83517767	      0.36446392	     29.61640590	     32.15459514	     -7.51374315	    -17.49851744	      1.12338319	     -3.59747608	      2.80758367	    -16.84835420	     -4.03126225	     34.99168439	     90.00000001	      0.00000000	      0.00000000	      1.53605842	    -10.42824472	    -17.67126189	     51.75188879	     90.00000001	      0.00000000	      0.00000000
      0.96000000	      5.64586530	      0.15221261	     -1.63547321	      0.40908873	      0.81310965	     -0.30130850	     27.35416327	     -6.92097586	    -36.06612807	     25.30283267	     -6.45921968	      0.44161774	     18.38371760	     24.22934510	     -7.51309901	    -12.30208564	      0.83629818	    -36.83910492	     20.90690008	     -2.78968011	      0.36489424	     29.63104213	     32.42563129	     -7.51309901	    -17.40408361	      1.00599622	     -3.95686222	      2.57912232	    -16.85078757	     -4.61111579	     35.07440559	     90.00000001	      0.00000000	      0.00000000	      2.32910418	    -10.68568285	    -16.72712699	     53.00521308	     90.00000001	      0.00000000	      0.00000000
      0.97000000	      5.34225335	      0.58314073	     -1.34396593	      0.42362076	      0.81036103	     -0.30165929	     27.90324723	     -7.46394540	    -36.23686126	     23.40977998	     -4.97282609	      0.40857774	     18.11727396	     25.67196436	     -7.51297263	    -12.95283624	      1.22176351	    -36.82578023	     21.13740580	     -3.01441530	      0.36891733	     29.57376212	     32.59785153	     -7.51297263	    -17.10737075	      0.76274363	     -4.35054711	      2.31993852	    -16.92658856	     -4.81530031	     35.20044031	     90.00000001	      0.00000000	      0.00000000	      3.14835437	    -10.76448272	    -16.33111496	     54.07072074	     90.00000001	      0.00000000	      0.00000000
      0.98000000	      5.51592486	      0.51948942	     -1.12835801	      0.43900482	      0.80834599	     -0.30112995	     27.78304848	     -7.32000278	    -37.19734032	     21.73305983	     -4.15111767	      0.37931345	     17.97044857	     29.07404610	     -7.51250735	    -14.34483086	      0.82083114	    -36.83223979	     21.40301085	     -2.81112442	      0.37355301	     29.42428944	     32.99701044	     -7.51250735	    -17.28678172	      0.96295425	     -4.42911004	      1.99353847	    -16.90542833	     -5.65515531	     35.42512255	     90.00000001	      0.00000000	      0.00000000	      3.79797406	    -10.99789424	    -15.23901712	     55.28422191	     90.00000001	      0.00000000	      0.00000000
      0.99000000	      5.49280313	      0.59878396	     -0.84181700	      0.45430313	      0.80612994	     -0.30094803	     28.00551478	     -7.32753874	    -37.40060177	     20.81804653	     -3.57471406	      0.36334346	     17.71720581	     30.47838650	     -7.51219093	    -15.29561193	      0.65981744	    -36.56436250	     21.82021844	     -2.98099021	      0.38083466	     29.11299674	     33.22249427	     -7.51219093	    -17.25967976	      1.06356968	     -4.64663130	      1.70025942	    -16.95884799	     -6.12753047	     35.66202829	     90.00000001	      0.00000000	      0.00000000	      4.39670188	    -11.05956177	    -14.70756625	     56.28728182	     90.00000001	      0.00000000	      0.00000000
